<?xml version="1.0" encoding="utf-8"?>
<!-- Generator: Adobe Illustrator 19.0.0, SVG Export Plug-In . SVG Version: 6.00 Build 0)  -->
<svg version="1.1" id="Layer_1" xmlns:x="&ns_extend;" xmlns:i="&ns_ai;" xmlns:graph="&ns_graphs;"
	 xmlns="http://www.w3.org/2000/svg" xmlns:xlink="http://www.w3.org/1999/xlink" x="0px" y="0px" viewBox="-528 894.5 989.1 260.5"
	 style="enable-background:new -528 894.5 989.1 260.5;" xml:space="preserve">
<style type="text/css">
	.st0{fill:#59666F;}
	.st1{fill:#E6412E;}
</style>
<metadata>
	<sfw  xmlns="&ns_sfw;">
		<slices></slices>
		<sliceSourceBounds  height="260.5" width="989.1" x="0" y="0" bottomLeftOrigin="true"></sliceSourceBounds>
	</sfw>
</metadata>
<g>
	<path class="st0" d="M-51.6,1040.2h-31.2l-40.9-125.9h28.6l28,88.5h0.4l28.4-88.5h28.6L-51.6,1040.2z"/>
	<path class="st0" d="M15.2,934.9h-25v-20.6h25V934.9z M-9.8,949h25v91.2h-25V949z"/>
	<path class="st0" d="M45.5,1010.6c0,10.8,9.5,15.3,19.2,15.3c7.1,0,16.4-2.8,16.4-11.6c0-7.6-10.6-10.4-28.4-14.1
		c-14.6-3.3-28.9-8.1-28.9-24.3c0-23.3,20.1-29.3,39.7-29.3c19.8,0,38.3,6.7,40.2,29.1H79.9c-0.7-9.7-8.1-12.3-17.1-12.3
		c-5.6,0-13.9,0.9-13.9,8.5c0,9,14.3,10.2,28.4,13.6c14.6,3.4,28.9,8.6,28.9,25.6c0,24-21,31.7-41.6,31.7c-21.2,0-42-7.9-42.9-32.1
		L45.5,1010.6z"/>
	<path class="st0" d="M143.8,949h18.3v16.8h-18.3v45.2c0,8.5,2.1,10.6,10.6,10.6c2.6,0.1,5.2-0.2,7.8-0.7v19.6
		c-4.9,0.7-9.7,1-14.6,0.9c-15.5,0-28.8-3.4-28.8-21.7v-53.8h-15.2V949h15.2v-27.3h25L143.8,949z"/>
	<path class="st0" d="M164.3,977.1c1.4-23.3,22.4-30.5,42.9-30.5c18.2,0,40,4.1,40,25.9v47.5c0,8.3,0.9,16.6,3.2,20.3h-25.4
		c-0.9-2.9-1.5-5.8-1.8-8.8c-7.9,8.3-19.4,11.3-30.7,11.3c-17.5,0-31-8.6-31-27.3c0.3-41.4,61.7-19.2,60.7-39.7
		c0-10.6-7.4-12.3-16.2-12.3c-9.7,0-15.7,3.9-16.6,13.8H164.3z M222.1,995.6c-4.2,3.7-13,3.9-20.8,5.3c-7.8,1.4-14.8,4.2-14.8,13.4
		s7.2,11.6,15.3,11.6c19.6,0,20.3-15.3,20.3-21L222.1,995.6z"/>
	<path class="st0" d="M-71.4,1097.5c-1.7-8.2-8.1-12.4-16.3-12.4c-13.9,0-19.7,11.4-19.7,23.5c0,13.3,5.9,24.3,19.8,24.3
		c10.1,0,16.1-7.2,16.8-16.8h7.7c-1.5,14.6-10.4,23.3-25.2,23.3c-18,0-26.9-13.4-26.9-30.3c0-16.9,9.6-30.6,27.5-30.6
		c12.1,0,22.2,6.5,24,18.9L-71.4,1097.5z"/>
	<path class="st0" d="M-49.3,1088.4h-6.9v-8.5h6.9V1088.4z M-56.2,1096h6.9v42.1h-6.9V1096z"/>
	<path class="st0" d="M-31,1096h8.4v6.1H-31v26.2c0,3.3,0.9,3.8,5.2,3.8h3.2v6.1h-5.3c-7.2,0-10-1.5-10-9.2v-26.8h-7.2v-6.1h7.2
		v-12.6h6.9L-31,1096z"/>
	<path class="st0" d="M-0.4,1143.8c-3.3,8.2-6,11.2-12.2,11.2c-1.6,0-3.3-0.2-4.8-0.7v-6.4c1.3,0.5,2.7,0.9,4.1,1
		c2.8,0,4.4-1.3,5.7-3.8l2.8-7.2l-16.7-41.9h7.8l12.3,34.5h0.2l11.8-34.4h7.3L-0.4,1143.8z"/>
	<path class="st0" d="M42.3,1080h6.9v22.2h0.2c2.2-5.1,8.3-7.2,13.3-7.2c11.1,0,14.5,6.3,14.5,15.4v27.7h-6.9v-28.5
		c0-5.2-3.3-8.5-8.5-8.5c-8.4,0-12.5,5.6-12.5,13.2v23.8h-6.9L42.3,1080z"/>
	<path class="st0" d="M103.7,1095.1c13.4,0,20.4,9.7,20.4,22.1s-7.1,22-20.4,22s-20.4-9.7-20.4-22S90.4,1095.1,103.7,1095.1
		L103.7,1095.1z M103.7,1133.1c7.3,0,13.1-5.7,13.1-15.9c0-10.2-5.9-16-13.1-16s-13.1,5.8-13.1,16
		C90.6,1127.4,96.5,1133,103.7,1133.1L103.7,1133.1z"/>
	<path class="st0" d="M139.9,1096h8.4v6.1h-8.4v26.2c0,3.3,0.9,3.8,5.2,3.8h3.2v6.1H143c-7.2,0-10-1.5-10-9.2v-26.8h-7.2v-6.1h7.2
		v-12.6h6.9L139.9,1096z"/>
	<path class="st0" d="M189.8,1124.8c-1.9,9.4-8.5,14.3-18,14.3c-13.4,0-19.8-9.4-20.2-22.2c0-12.7,8.3-21.9,19.8-21.9
		c14.9,0,19.5,13.9,19.1,24.1h-31.5c-0.2,7.3,3.9,13.8,13.1,13.8c5.8,0,9.7-2.7,10.9-8.2H189.8z M183.1,1113.1
		c-0.4-6.6-5.2-11.9-12.1-11.9c-7.2,0-11.7,5.4-12,11.9H183.1z"/>
	<path class="st0" d="M196,1080h6.9v58.2H196V1080z"/>
	<path class="st0" d="M233.4,1080h21.1c5,0,12,0,15.4,2.1c4.3,2.5,6.9,7.1,6.8,12.1c0,6.2-3.2,10.8-8.6,13v0.2
		c7.2,1.5,11.1,6.8,11.1,14c0,8.5-6.2,16.7-17.7,16.7h-28.1L233.4,1080z M241.1,1105h15.5c8.8,0,12.4-3.1,12.4-9.3
		c0-8.2-5.6-9.2-12.4-9.2h-15.5V1105z M241.1,1131.6h19.4c6.8,0,10.9-4,10.9-10.4c0-7.6-6.1-9.7-12.6-9.7h-17.7V1131.6z"/>
	<path class="st0" d="M285.8,1096h6.5v8.9h0.2c3.3-6.8,8-10.1,15.5-9.9v7.3c-11.2,0-15.2,6.3-15.2,17v18.7h-6.9L285.8,1096z"/>
	<path class="st0" d="M311.1,1096h6.5v6.7h0.2c2.9-5.2,7.6-7.7,13.7-7.7c11.1,0,14.5,6.3,14.5,15.4v27.7h-7v-28.5
		c0-5.2-3.3-8.5-8.5-8.5c-8.4,0-12.5,5.6-12.5,13.2v23.8h-6.9L311.1,1096z"/>
	<path class="st0" d="M372.5,1095.1c13.4,0,20.4,9.7,20.4,22.1s-7.1,22-20.4,22s-20.4-9.7-20.4-22S359.1,1095.1,372.5,1095.1
		L372.5,1095.1z M372.5,1133.1c7.3,0,13.1-5.7,13.1-15.9c0-10.2-5.9-16-13.1-16s-13.1,5.8-13.1,16
		C359.4,1127.4,365.3,1133,372.5,1133.1L372.5,1133.1z"/>
</g>
<path class="st1" d="M-410.3,922.5v89.7H-500v-89.7H-410.3z M-382.3,894.5H-528v145.7h145.7V894.5z"/>
<path class="st1" d="M-237.8,930.3v60.3h-60.3v-60.3H-237.8z M-219,911.5h-98v98h98V911.5z"/>
<path class="st0" d="M-362.1,989.5v70.9H-433v-70.9H-362.1 M-340,967.4h-115.1v115.1H-340V967.4z"/>
<path class="st1" d="M-181.2,896.5h4.9v164h-4.9V896.5z"/>
<path class="st1" d="M276.1,904l5,17.5l18.2-0.6l-15.1,10.2l6.2,17.1L276.1,937l-14.4,11.2l6.2-17.1l-15.1-10.2l18.2,0.6L276.1,904z
	"/>
<path class="st1" d="M331.3,904l5,17.5l18.2-0.6l-15.1,10.2l6.2,17.1L331.3,937L317,948.2l6.2-17.1l-15.1-10.2l18.2,0.6L331.3,904z"
	/>
<path class="st1" d="M385.3,904l5,17.5l18.2-0.6l-15.1,10.2l6.2,17.1L385.3,937L371,948.2l6.2-17.1l-15.1-10.2l18.2,0.6L385.3,904z"
	/>
<path class="st1" d="M437.8,904l5,17.5l18.2-0.6L446,931.1l6.2,17.1L437.8,937l-14.3,11.2l6.2-17.1l-15.1-10.2l18.2,0.6L437.8,904z"
	/>
</svg>
