<?xml version="1.0"?>
<svg xmlns="http://www.w3.org/2000/svg" viewBox="0 0 989.06 260.49" width="989.06px" height="260.49px"><g fill="#ffffff"><path d="m476.35 145.73h-31.22l-40.92-125.94h28.58l28 88.55h.35l28.4-88.55h28.58z"/><path d="m543.21 40.42h-25v-20.63h25zm-25 14.11h25v91.19h-25z"/><path d="m573.55 116.09c0 10.76 9.52 15.35 19.23 15.35 7.06 0 16.4-2.82 16.4-11.64 0-7.58-10.58-10.41-28.4-14.11-14.64-3.35-28.93-8.11-28.93-24.34 0-23.28 20.11-29.28 39.69-29.28 19.76 0 38.28 6.7 40.22 29.1h-23.82c-.71-9.7-8.11-12.35-17.11-12.35-5.64 0-13.94.88-13.94 8.47 0 9 14.29 10.23 28.4 13.58 14.64 3.35 28.93 8.64 28.93 25.58 0 24-21 31.75-41.63 31.75-21.17 0-42-7.94-42.86-32.1z"/><path d="m671.8 54.53h18.34v16.76h-18.34v45.16c0 8.47 2.12 10.58 10.58 10.58a35.23 35.23 0 0 0 7.76-.71v19.58a96.06 96.06 0 0 1 -14.64.88c-15.52 0-28.75-3.35-28.75-21.7v-53.79h-15.17v-16.76h15.17v-27.34h25z"/><path d="m692.26 82.58c1.41-23.28 22.4-30.52 42.86-30.52 18.17 0 40 4.06 40 25.93v47.45c0 8.29.88 16.58 3.17 20.29h-25.4a37.23 37.23 0 0 1 -1.76-8.82c-7.94 8.29-19.4 11.29-30.69 11.29-17.46 0-31-8.64-31-27.34.35-41.45 61.74-19.23 60.68-39.69 0-10.58-7.41-12.35-16.23-12.35-9.7 0-15.7 3.88-16.58 13.76zm57.86 18.52c-4.23 3.7-13.05 3.88-20.81 5.29s-14.82 4.23-14.82 13.41 7.23 11.64 15.35 11.64c19.58 0 20.29-15.35 20.29-21z"/><path d="m456.62 203c-1.71-8.23-8.15-12.38-16.29-12.38-13.85 0-19.71 11.4-19.71 23.54 0 13.28 5.86 24.35 19.79 24.35 10.1 0 16.13-7.17 16.78-16.78h7.74c-1.55 14.57-10.43 23.27-25.17 23.27-18 0-26.88-13.36-26.88-30.3s9.61-30.63 27.53-30.63c12.14 0 22.24 6.52 23.95 18.9z"/><path d="m478.69 193.94h-6.92v-8.47h6.92zm-6.92 7.58h6.92v42.11h-6.92z"/><path d="m497 201.52h8.39v6.11h-8.39v26.15c0 3.26.9 3.75 5.21 3.75h3.18v6.11h-5.29c-7.17 0-10-1.47-10-9.2v-26.8h-7.17v-6.11h7.17v-12.64h6.9z"/><path d="m527.56 249.25c-3.26 8.15-6 11.24-12.22 11.24a13.78 13.78 0 0 1 -4.81-.73v-6.36a14.16 14.16 0 0 0 4.07 1c2.85 0 4.4-1.3 5.7-3.83l2.85-7.17-16.7-41.87h7.82l12.31 34.47h.16l11.81-34.45h7.33z"/><path d="m570.32 185.47h6.92v22.24h.16c2.2-5.13 8.31-7.17 13.28-7.17 11.08 0 14.5 6.35 14.5 15.39v27.69h-6.92v-28.5c0-5.21-3.26-8.47-8.55-8.47-8.39 0-12.46 5.62-12.46 13.19v23.78h-6.92z"/><path d="m631.73 200.54c13.36 0 20.44 9.69 20.44 22.07s-7.09 22-20.44 22-20.44-9.69-20.44-22 7.08-22.07 20.44-22.07zm0 38c7.25 0 13.11-5.7 13.11-15.88s-5.86-16-13.11-16-13.11 5.78-13.11 16 5.86 15.84 13.11 15.84z"/><path d="m667.89 201.52h8.39v6.11h-8.39v26.15c0 3.26.9 3.75 5.21 3.75h3.18v6.11h-5.28c-7.17 0-10-1.47-10-9.2v-26.8h-7.2v-6.11h7.2v-12.64h6.92z"/><path d="m717.82 230.27c-1.87 9.37-8.47 14.34-18 14.34-13.44 0-19.79-9.37-20.2-22.16 0-12.71 8.31-21.91 19.79-21.91 14.91 0 19.47 13.93 19.06 24.11h-31.52c-.24 7.33 3.91 13.85 13.11 13.85 5.78 0 9.69-2.69 10.91-8.23zm-6.68-11.73c-.41-6.6-5.21-11.89-12.14-11.89-7.17 0-11.65 5.38-12.05 11.89z"/><path d="m724 185.47h6.92v58.16h-6.92z"/><path d="m761.39 185.47h21.1c5 0 12 0 15.39 2.12a13.7 13.7 0 0 1 6.84 12.14c0 6.19-3.18 10.83-8.63 13v .16c7.17 1.55 11.08 6.84 11.08 14 0 8.47-6.19 16.7-17.67 16.7h-28.1zm7.74 25h15.47c8.8 0 12.38-3.1 12.38-9.29 0-8.15-5.62-9.2-12.38-9.2h-15.47zm0 26.63h19.39c6.76 0 10.91-4 10.91-10.43 0-7.57-6.11-9.69-12.62-9.69h-17.68z"/><path d="m813.76 201.52h6.52v8.88h.16c3.34-6.84 8-10.1 15.48-9.86v7.33c-11.16 0-15.23 6.27-15.23 17v18.73h-6.92z"/><path d="m839.09 201.52h6.52v6.68h.16c2.93-5.21 7.58-7.66 13.68-7.66 11.08 0 14.5 6.35 14.5 15.39v27.69h-6.95v-28.5c0-5.21-3.26-8.47-8.55-8.47-8.39 0-12.46 5.62-12.46 13.19v23.78h-6.92z"/><path d="m900.5 200.54c13.36 0 20.44 9.69 20.44 22.07s-7.09 22-20.44 22-20.44-9.69-20.44-22 7.08-22.07 20.44-22.07zm0 38c7.25 0 13.11-5.7 13.11-15.88s-5.86-16-13.11-16-13.11 5.78-13.11 16 5.86 15.84 13.11 15.84z"/></g><path d="m117.73 28v89.73h-89.73v-89.73zm28-28h-145.73v145.73h145.73z" fill="#e6412e"/><path d="m290.17 35.83v60.34h-60.34v-60.34zm18.83-18.83h-98v98h98z" fill="#e6412e"/><path d="m165.88 95v70.89h-70.88v-70.89h70.89m22.11-22.14h-115.14v115.14h115.14z" fill="#ffffff"/><path d="m346.78 2h4.94v164h-4.94z" fill="#e6412e"/><path d="m804.1 9.52 5.03 17.51 18.2-.63-15.1 10.19 6.23 17.12-14.36-11.21-14.36 11.21 6.23-17.12-15.1-10.19 18.21.63z" fill="#e6412e"/><path d="m859.33 9.52 5.03 17.51 18.21-.63-15.11 10.19 6.23 17.12-14.36-11.21-14.35 11.21 6.22-17.12-15.1-10.19 18.21.63z" fill="#e6412e"/><path d="m913.33 9.52 5.03 17.51 18.21-.63-15.11 10.19 6.23 17.12-14.36-11.21-14.35 11.21 6.22-17.12-15.1-10.19 18.21.63z" fill="#e6412e"/><path d="m965.83 9.52 5.03 17.51 18.21-.63-15.11 10.19 6.23 17.12-14.36-11.21-14.35 11.21 6.22-17.12-15.1-10.19 18.21.63z" fill="#e6412e"/></svg>
